# xmcd
# Copyright (C) 1995-1998 Ti Kan
#
# Track frame offsets:
#       150
#       19646
#       39484
#       65763
#       81283
#       100462
#       122804
#       140256
#       159413
#       180024
#       199396
#       214398
#       231690
#
# Disc length: 3314 seconds
#
# Revision: 0
# Processed by: cddbd v1.4PL0 Copyright (c) Steve Scherf et al.
# Submitted via: CD-Transfer v1.0
#
DISCID=ba0cf00d
DTITLE=Stefanoni - Nicht Genug Von Dir
DYEAR=2003
DGENRE=
TTITLE0=Blinde Liebe
TTITLE1=Secondo
TTITLE2=En Trübe Tag
TTITLE3=Nachbar
TTITLE4=Nicht Genug Von Dir
TTITLE5=Nachtzug
TTITLE6=Pause
TTITLE7=Ohne Deine Liebe
TTITLE8=Aus Vollen Zügen
TTITLE9=Pedro
TTITLE10=Scherben
TTITLE11=Regennass
TTITLE12=Königin
EXTD=
EXTT0=
EXTT1=
EXTT2=
EXTT3=
EXTT4=
EXTT5=
EXTT6=
EXTT7=
EXTT8=
EXTT9=
EXTT10=
EXTT11=
EXTT12=
PLAYORDER=
